<svg width="781" height="150" viewBox="0 0 781 150" fill="none" xmlns="http://www.w3.org/2000/svg">
<path d="M56.4534 142.351V59H96.7775C107.14 59 114.875 61.0242 119.981 65.0727C125.087 69.0418 127.64 74.2811 127.64 80.7904C127.64 85.0771 126.551 88.8477 124.374 92.1024C122.271 95.2777 119.267 97.818 115.363 99.7231C111.533 101.549 106.952 102.462 101.621 102.462L103.874 96.7463C109.43 96.7463 114.274 97.6592 118.404 99.485C122.534 101.231 125.725 103.811 127.978 107.225C130.306 110.559 131.47 114.647 131.47 119.489C131.47 126.713 128.691 132.349 123.135 136.398C117.653 140.367 109.618 142.351 99.0302 142.351H56.4534ZM78.5303 125.324H97.228C101.058 125.324 103.949 124.649 105.901 123.3C107.929 121.871 108.942 119.728 108.942 116.87C108.942 114.012 107.929 111.908 105.901 110.559C103.949 109.13 101.058 108.416 97.228 108.416H76.9533V92.1024H93.8489C97.6035 92.1024 100.419 91.4277 102.297 90.0782C104.174 88.7287 105.113 86.7044 105.113 84.0054C105.113 81.3064 104.174 79.3218 102.297 78.0517C100.419 76.7022 97.6035 76.0275 93.8489 76.0275H78.5303V125.324Z" fill="white"/>
<rect y="59" width="75.0164" height="83.3515" fill="#272727"/>
<path d="M75.0164 142.352V59H37.7989C30.3555 59 23.9587 60.2304 18.6087 62.6913C13.1812 65.1521 8.99421 68.7244 6.04783 73.4079C3.10145 78.0121 1.62826 83.4895 1.62826 89.8401C1.62826 96.1113 3.10145 101.549 6.04783 106.153C8.99421 110.678 13.1812 114.171 18.6087 116.632C23.9587 119.013 30.3555 120.204 37.7989 120.204H62.2229L51.9881 110.321V142.352H75.0164ZM24.6565 142.352L44.8935 111.988H20.3533L0 142.352H24.6565ZM51.9881 112.821L62.2229 101.986H39.1946C34.3874 101.986 30.8207 100.914 28.4946 98.7706C26.091 96.6273 24.8892 93.6504 24.8892 89.8401C24.8892 85.9503 26.091 82.9338 28.4946 80.7905C30.8207 78.6472 34.3874 77.5755 39.1946 77.5755H62.2229L51.9881 66.7398V112.821Z" fill="white"/>
<path d="M180.76 143.68C174.04 143.68 167.84 142.6 162.16 140.44C156.48 138.28 151.52 135.24 147.28 131.32C143.12 127.32 139.88 122.68 137.56 117.4C135.24 112.12 134.08 106.32 134.08 100C134.08 93.68 135.24 87.88 137.56 82.6C139.88 77.32 143.12 72.72 147.28 68.8C151.52 64.8 156.48 61.72 162.16 59.56C167.84 57.4 174.04 56.32 180.76 56.32C187.56 56.32 193.76 57.4 199.36 59.56C205.04 61.72 209.96 64.8 214.12 68.8C218.28 72.72 221.52 77.32 223.84 82.6C226.24 87.88 227.44 93.68 227.44 100C227.44 106.32 226.24 112.16 223.84 117.52C221.52 122.8 218.28 127.4 214.12 131.32C209.96 135.24 205.04 138.28 199.36 140.44C193.76 142.6 187.56 143.68 180.76 143.68ZM180.76 124C183.96 124 186.92 123.44 189.64 122.32C192.44 121.2 194.84 119.6 196.84 117.52C198.92 115.36 200.52 112.8 201.64 109.84C202.84 106.88 203.44 103.6 203.44 100C203.44 96.32 202.84 93.04 201.64 90.16C200.52 87.2 198.92 84.68 196.84 82.6C194.84 80.44 192.44 78.8 189.64 77.68C186.92 76.56 183.96 76 180.76 76C177.56 76 174.56 76.56 171.76 77.68C169.04 78.8 166.64 80.44 164.56 82.6C162.56 84.68 160.96 87.2 159.76 90.16C158.64 93.04 158.08 96.32 158.08 100C158.08 103.6 158.64 106.88 159.76 109.84C160.96 112.8 162.56 115.36 164.56 117.52C166.64 119.6 169.04 121.2 171.76 122.32C174.56 123.44 177.56 124 180.76 124ZM259.804 143.68C252.924 143.68 246.284 142.84 239.884 141.16C233.564 139.4 228.404 137.16 224.404 134.44L232.204 116.92C235.964 119.32 240.284 121.32 245.164 122.92C250.124 124.44 255.044 125.2 259.924 125.2C263.204 125.2 265.844 124.92 267.844 124.36C269.844 123.72 271.284 122.92 272.164 121.96C273.124 120.92 273.604 119.72 273.604 118.36C273.604 116.44 272.724 114.92 270.964 113.8C269.204 112.68 266.924 111.76 264.124 111.04C261.324 110.32 258.204 109.6 254.764 108.88C251.404 108.16 248.004 107.24 244.564 106.12C241.204 105 238.124 103.56 235.324 101.8C232.524 99.96 230.244 97.6 228.484 94.72C226.724 91.76 225.844 88.04 225.844 83.56C225.844 78.52 227.204 73.96 229.924 69.88C232.724 65.8 236.884 62.52 242.404 60.04C247.924 57.56 254.804 56.32 263.044 56.32C268.564 56.32 273.964 56.96 279.244 58.24C284.604 59.44 289.364 61.24 293.524 63.64L286.204 81.28C282.204 79.12 278.244 77.52 274.324 76.48C270.404 75.36 266.604 74.8 262.924 74.8C259.644 74.8 257.004 75.16 255.004 75.88C253.004 76.52 251.564 77.4 250.684 78.52C249.804 79.64 249.364 80.92 249.364 82.36C249.364 84.2 250.204 85.68 251.884 86.8C253.644 87.84 255.924 88.72 258.724 89.44C261.604 90.08 264.724 90.76 268.084 91.48C271.524 92.2 274.924 93.12 278.284 94.24C281.724 95.28 284.844 96.72 287.644 98.56C290.444 100.32 292.684 102.68 294.364 105.64C296.124 108.52 297.004 112.16 297.004 116.56C297.004 121.44 295.604 125.96 292.804 130.12C290.084 134.2 285.964 137.48 280.444 139.96C275.004 142.44 268.124 143.68 259.804 143.68ZM327.9 143.68C321.02 143.68 314.38 142.84 307.98 141.16C301.66 139.4 296.5 137.16 292.5 134.44L300.3 116.92C304.06 119.32 308.38 121.32 313.26 122.92C318.22 124.44 323.14 125.2 328.02 125.2C331.3 125.2 333.94 124.92 335.94 124.36C337.94 123.72 339.38 122.92 340.26 121.96C341.22 120.92 341.7 119.72 341.7 118.36C341.7 116.44 340.82 114.92 339.06 113.8C337.3 112.68 335.02 111.76 332.22 111.04C329.42 110.32 326.3 109.6 322.86 108.88C319.5 108.16 316.1 107.24 312.66 106.12C309.3 105 306.22 103.56 303.42 101.8C300.62 99.96 298.34 97.6 296.58 94.72C294.82 91.76 293.94 88.04 293.94 83.56C293.94 78.52 295.3 73.96 298.02 69.88C300.82 65.8 304.98 62.52 310.5 60.04C316.02 57.56 322.9 56.32 331.14 56.32C336.66 56.32 342.06 56.96 347.34 58.24C352.7 59.44 357.46 61.24 361.62 63.64L354.3 81.28C350.3 79.12 346.34 77.52 342.42 76.48C338.5 75.36 334.7 74.8 331.02 74.8C327.74 74.8 325.1 75.16 323.1 75.88C321.1 76.52 319.66 77.4 318.78 78.52C317.9 79.64 317.46 80.92 317.46 82.36C317.46 84.2 318.3 85.68 319.98 86.8C321.74 87.84 324.02 88.72 326.82 89.44C329.7 90.08 332.82 90.76 336.18 91.48C339.62 92.2 343.02 93.12 346.38 94.24C349.82 95.28 352.94 96.72 355.74 98.56C358.54 100.32 360.78 102.68 362.46 105.64C364.22 108.52 365.1 112.16 365.1 116.56C365.1 121.44 363.7 125.96 360.9 130.12C358.18 134.2 354.06 137.48 348.54 139.96C343.1 142.44 336.22 143.68 327.9 143.68ZM408.475 143.68C401.835 143.68 395.675 142.64 389.995 140.56C384.315 138.4 379.395 135.36 375.235 131.44C371.155 127.52 367.955 122.92 365.635 117.64C363.315 112.28 362.155 106.4 362.155 100C362.155 93.6 363.315 87.76 365.635 82.48C367.955 77.12 371.195 72.48 375.355 68.56C379.515 64.64 384.435 61.64 390.115 59.56C395.875 57.4 402.155 56.32 408.955 56.32C416.875 56.32 423.955 57.64 430.195 60.28C436.435 62.92 441.595 66.72 445.675 71.68L430.555 85.36C427.675 82.24 424.555 79.92 421.195 78.4C417.915 76.8 414.235 76 410.155 76C406.555 76 403.275 76.56 400.315 77.68C397.355 78.8 394.835 80.44 392.755 82.6C390.675 84.68 389.035 87.2 387.835 90.16C386.715 93.04 386.155 96.32 386.155 100C386.155 103.52 386.715 106.76 387.835 109.72C389.035 112.68 390.675 115.24 392.755 117.4C394.835 119.48 397.315 121.12 400.195 122.32C403.155 123.44 406.395 124 409.915 124C413.435 124 416.875 123.44 420.235 122.32C423.595 121.12 426.995 119.12 430.435 116.32L443.755 133C438.955 136.44 433.395 139.08 427.075 140.92C420.755 142.76 414.555 143.68 408.475 143.68ZM422.755 129.88V98.2H443.755V133L422.755 129.88ZM449.219 142V58H487.619C495.299 58 501.899 59.24 507.419 61.72C513.019 64.2 517.339 67.8 520.379 72.52C523.419 77.16 524.939 82.68 524.939 89.08C524.939 95.4 523.419 100.88 520.379 105.52C517.339 110.08 513.019 113.6 507.419 116.08C501.899 118.48 495.299 119.68 487.619 119.68H462.419L472.979 109.72V142H449.219ZM501.179 142L480.299 111.4H505.619L526.619 142H501.179ZM472.979 112.24L462.419 101.32H486.179C491.139 101.32 494.819 100.24 497.219 98.08C499.699 95.92 500.939 92.92 500.939 89.08C500.939 85.16 499.699 82.12 497.219 79.96C494.819 77.8 491.139 76.72 486.179 76.72H462.419L472.979 65.8V112.24ZM570.807 143.68C564.087 143.68 557.887 142.6 552.207 140.44C546.527 138.28 541.567 135.24 537.327 131.32C533.167 127.32 529.927 122.68 527.607 117.4C525.287 112.12 524.127 106.32 524.127 100C524.127 93.68 525.287 87.88 527.607 82.6C529.927 77.32 533.167 72.72 537.327 68.8C541.567 64.8 546.527 61.72 552.207 59.56C557.887 57.4 564.087 56.32 570.807 56.32C577.607 56.32 583.807 57.4 589.407 59.56C595.087 61.72 600.007 64.8 604.167 68.8C608.327 72.72 611.567 77.32 613.887 82.6C616.287 87.88 617.487 93.68 617.487 100C617.487 106.32 616.287 112.16 613.887 117.52C611.567 122.8 608.327 127.4 604.167 131.32C600.007 135.24 595.087 138.28 589.407 140.44C583.807 142.6 577.607 143.68 570.807 143.68ZM570.807 124C574.007 124 576.967 123.44 579.687 122.32C582.487 121.2 584.887 119.6 586.887 117.52C588.967 115.36 590.567 112.8 591.687 109.84C592.887 106.88 593.487 103.6 593.487 100C593.487 96.32 592.887 93.04 591.687 90.16C590.567 87.2 588.967 84.68 586.887 82.6C584.887 80.44 582.487 78.8 579.687 77.68C576.967 76.56 574.007 76 570.807 76C567.607 76 564.607 76.56 561.807 77.68C559.087 78.8 556.687 80.44 554.607 82.6C552.607 84.68 551.007 87.2 549.807 90.16C548.687 93.04 548.127 96.32 548.127 100C548.127 103.6 548.687 106.88 549.807 109.84C551.007 112.8 552.607 115.36 554.607 117.52C556.687 119.6 559.087 121.2 561.807 122.32C564.607 123.44 567.607 124 570.807 124ZM659.091 143.68C646.691 143.68 637.011 140.28 630.051 133.48C623.091 126.68 619.611 117.04 619.611 104.56V58H643.371V103.84C643.371 111.04 644.771 116.2 647.571 119.32C650.451 122.44 654.371 124 659.331 124C664.291 124 668.171 122.44 670.971 119.32C673.771 116.2 675.171 111.04 675.171 103.84V58H698.571V104.56C698.571 117.04 695.091 126.68 688.131 133.48C681.171 140.28 671.491 143.68 659.091 143.68ZM705.067 142V58H743.467C751.147 58 757.747 59.24 763.267 61.72C768.867 64.2 773.187 67.8 776.227 72.52C779.267 77.16 780.787 82.68 780.787 89.08C780.787 95.4 779.267 100.88 776.227 105.52C773.187 110.16 768.867 113.76 763.267 116.32C757.747 118.8 751.147 120.04 743.467 120.04H718.267L728.827 109.72V142H705.067ZM728.827 112.24L718.267 101.32H742.027C746.987 101.32 750.667 100.24 753.067 98.08C755.547 95.92 756.787 92.92 756.787 89.08C756.787 85.16 755.547 82.12 753.067 79.96C750.667 77.8 746.987 76.72 742.027 76.72H718.267L728.827 65.8V112.24Z" fill="white"/>
</svg>
