<svg width="244" height="77" viewBox="0 0 244 77" fill="none" xmlns="http://www.w3.org/2000/svg">
<path d="M47 75.3333V22H72.8018C79.4324 22 84.3814 23.2952 87.6487 25.8857C90.9159 28.4254 92.5496 31.7778 92.5496 35.9429C92.5496 38.6857 91.8529 41.0984 90.4595 43.181C89.1141 45.2127 87.1922 46.8381 84.6937 48.0571C82.2433 49.2254 79.3123 49.8095 75.9009 49.8095L77.3423 46.1524C80.8979 46.1524 83.997 46.7365 86.6396 47.9048C89.2823 49.0222 91.3243 50.673 92.7658 52.8572C94.2553 54.9905 95 57.6064 95 60.7048C95 65.327 93.2222 68.9333 89.6667 71.5238C86.1592 74.0635 81.018 75.3333 74.2432 75.3333H47ZM61.1261 64.4381H73.0901C75.5405 64.4381 77.3904 64.0064 78.6396 63.1429C79.9369 62.2286 80.5856 60.8572 80.5856 59.0286C80.5856 57.2 79.9369 55.854 78.6396 54.9905C77.3904 54.0762 75.5405 53.6191 73.0901 53.6191H60.1171V43.181H70.9279C73.3303 43.181 75.1321 42.7492 76.3333 41.8857C77.5345 41.0222 78.1351 39.727 78.1351 38C78.1351 36.273 77.5345 35.0032 76.3333 34.1905C75.1321 33.327 73.3303 32.8952 70.9279 32.8952H61.1261V64.4381Z" fill="#272727"/>
<rect y="22" width="48" height="53.3333" fill="#272727"/>
<path d="M48 75.3333V22H24.1861C19.4233 22 15.3302 22.7873 11.907 24.3619C8.43411 25.9365 5.75504 28.2222 3.86977 31.219C1.9845 34.1651 1.04186 37.6698 1.04186 41.7333C1.04186 45.746 1.9845 49.2254 3.86977 52.1714C5.75504 55.0667 8.43411 57.3016 11.907 58.8762C15.3302 60.4 19.4233 61.1619 24.1861 61.1619H39.814L33.2651 54.8381V75.3333H48ZM15.7767 75.3333L28.7256 55.9048H13.0233L0 75.3333H15.7767ZM33.2651 56.4381L39.814 49.5048H25.0791C22.0031 49.5048 19.7209 48.8191 18.2326 47.4476C16.6946 46.0762 15.9256 44.1714 15.9256 41.7333C15.9256 39.2444 16.6946 37.3143 18.2326 35.9429C19.7209 34.5714 22.0031 33.8857 25.0791 33.8857H39.814L33.2651 26.9524V56.4381Z" fill="white"/>
<path d="M125.571 76.078C121.259 76.078 117.281 75.385 113.636 73.999C109.991 72.613 106.809 70.6623 104.088 68.147C101.419 65.5803 99.3397 62.603 97.851 59.215C96.3623 55.827 95.618 52.1053 95.618 48.05C95.618 43.9947 96.3623 40.273 97.851 36.885C99.3397 33.497 101.419 30.5453 104.088 28.03C106.809 25.4633 109.991 23.487 113.636 22.101C117.281 20.715 121.259 20.022 125.571 20.022C129.934 20.022 133.913 20.715 137.506 22.101C141.151 23.487 144.308 25.4633 146.977 28.03C149.646 30.5453 151.725 33.497 153.214 36.885C154.754 40.273 155.524 43.9947 155.524 48.05C155.524 52.1053 154.754 55.8527 153.214 59.292C151.725 62.68 149.646 65.6317 146.977 68.147C144.308 70.6623 141.151 72.613 137.506 73.999C133.913 75.385 129.934 76.078 125.571 76.078ZM125.571 63.45C127.624 63.45 129.524 63.0907 131.269 62.372C133.066 61.6533 134.606 60.6267 135.889 59.292C137.224 57.906 138.25 56.2633 138.969 54.364C139.739 52.4647 140.124 50.36 140.124 48.05C140.124 45.6887 139.739 43.584 138.969 41.736C138.25 39.8367 137.224 38.2197 135.889 36.885C134.606 35.499 133.066 34.4467 131.269 33.728C129.524 33.0093 127.624 32.65 125.571 32.65C123.518 32.65 121.593 33.0093 119.796 33.728C118.051 34.4467 116.511 35.499 115.176 36.885C113.893 38.2197 112.866 39.8367 112.096 41.736C111.377 43.584 111.018 45.6887 111.018 48.05C111.018 50.36 111.377 52.4647 112.096 54.364C112.866 56.2633 113.893 57.906 115.176 59.292C116.511 60.6267 118.051 61.6533 119.796 62.372C121.593 63.0907 123.518 63.45 125.571 63.45ZM176.291 76.078C171.876 76.078 167.616 75.539 163.509 74.461C159.454 73.3317 156.143 71.8943 153.576 70.149L158.581 58.907C160.994 60.447 163.766 61.7303 166.897 62.757C170.08 63.7323 173.237 64.22 176.368 64.22C178.473 64.22 180.167 64.0403 181.45 63.681C182.733 63.2703 183.657 62.757 184.222 62.141C184.838 61.4737 185.146 60.7037 185.146 59.831C185.146 58.599 184.581 57.6237 183.452 56.905C182.323 56.1863 180.86 55.596 179.063 55.134C177.266 54.672 175.264 54.21 173.057 53.748C170.901 53.286 168.719 52.6957 166.512 51.977C164.356 51.2583 162.38 50.3343 160.583 49.205C158.786 48.0243 157.323 46.51 156.194 44.662C155.065 42.7627 154.5 40.3757 154.5 37.501C154.5 34.267 155.373 31.341 157.118 28.723C158.915 26.105 161.584 24.0003 165.126 22.409C168.668 20.8177 173.083 20.022 178.37 20.022C181.912 20.022 185.377 20.4327 188.765 21.254C192.204 22.024 195.259 23.179 197.928 24.719L193.231 36.038C190.664 34.652 188.123 33.6253 185.608 32.958C183.093 32.2393 180.654 31.88 178.293 31.88C176.188 31.88 174.494 32.111 173.211 32.573C171.928 32.9837 171.004 33.5483 170.439 34.267C169.874 34.9857 169.592 35.807 169.592 36.731C169.592 37.9117 170.131 38.8613 171.209 39.58C172.338 40.2473 173.801 40.812 175.598 41.274C177.446 41.6847 179.448 42.121 181.604 42.583C183.811 43.045 185.993 43.6353 188.149 44.354C190.356 45.0213 192.358 45.9453 194.155 47.126C195.952 48.2553 197.389 49.7697 198.467 51.669C199.596 53.517 200.161 55.8527 200.161 58.676C200.161 61.8073 199.263 64.7077 197.466 67.377C195.721 69.995 193.077 72.0997 189.535 73.691C186.044 75.2823 181.63 76.078 176.291 76.078ZM219.986 76.078C215.571 76.078 211.31 75.539 207.204 74.461C203.148 73.3317 199.837 71.8943 197.271 70.149L202.276 58.907C204.688 60.447 207.46 61.7303 210.592 62.757C213.774 63.7323 216.931 64.22 220.063 64.22C222.167 64.22 223.861 64.0403 225.145 63.681C226.428 63.2703 227.352 62.757 227.917 62.141C228.533 61.4737 228.841 60.7037 228.841 59.831C228.841 58.599 228.276 57.6237 227.147 56.905C226.017 56.1863 224.554 55.596 222.758 55.134C220.961 54.672 218.959 54.21 216.752 53.748C214.596 53.286 212.414 52.6957 210.207 51.977C208.051 51.2583 206.074 50.3343 204.278 49.205C202.481 48.0243 201.018 46.51 199.889 44.662C198.759 42.7627 198.195 40.3757 198.195 37.501C198.195 34.267 199.067 31.341 200.813 28.723C202.609 26.105 205.279 24.0003 208.821 22.409C212.363 20.8177 216.777 20.022 222.065 20.022C225.607 20.022 229.072 20.4327 232.46 21.254C235.899 22.024 238.953 23.179 241.623 24.719L236.926 36.038C234.359 34.652 231.818 33.6253 229.303 32.958C226.787 32.2393 224.349 31.88 221.988 31.88C219.883 31.88 218.189 32.111 216.906 32.573C215.622 32.9837 214.698 33.5483 214.134 34.267C213.569 34.9857 213.287 35.807 213.287 36.731C213.287 37.9117 213.826 38.8613 214.904 39.58C216.033 40.2473 217.496 40.812 219.293 41.274C221.141 41.6847 223.143 42.121 225.299 42.583C227.506 43.045 229.688 43.6353 231.844 44.354C234.051 45.0213 236.053 45.9453 237.85 47.126C239.646 48.2553 241.084 49.7697 242.162 51.669C243.291 53.517 243.856 55.8527 243.856 58.676C243.856 61.8073 242.957 64.7077 241.161 67.377C239.415 69.995 236.772 72.0997 233.23 73.691C229.739 75.2823 225.324 76.078 219.986 76.078Z" fill="#272727"/>
</svg>
