<svg width="323" height="61" viewBox="0 0 323 61" fill="none" xmlns="http://www.w3.org/2000/svg">
<path d="M38.0259 58.6796V16.4285H58.4663C63.7191 16.4285 67.6397 17.4546 70.2281 19.5068C72.8164 21.5187 74.1106 24.1745 74.1106 27.4741C74.1106 29.647 73.5587 31.5584 72.4548 33.2082C71.389 34.8178 69.8665 36.1054 67.8871 37.0711C65.9459 37.9966 63.6239 38.4594 60.9214 38.4594L62.0633 35.5622C64.8801 35.5622 67.3352 36.0249 69.4287 36.9504C71.5222 37.8357 73.14 39.1435 74.2819 40.8737C75.4619 42.5638 76.0519 44.6361 76.0519 47.0907C76.0519 50.7524 74.6435 53.6094 71.8268 55.6616C69.0481 57.6736 64.9752 58.6796 59.6082 58.6796H38.0259ZM49.2167 50.0483H58.6947C60.6359 50.0483 62.1014 49.7062 63.091 49.0222C64.1188 48.2979 64.6326 47.2114 64.6326 45.7628C64.6326 44.3142 64.1188 43.2479 63.091 42.5638C62.1014 41.8395 60.6359 41.4773 58.6947 41.4773H48.4174V33.2082H56.9818C58.885 33.2082 60.3124 32.8662 61.264 32.1821C62.2156 31.498 62.6914 30.4719 62.6914 29.1038C62.6914 27.7357 62.2156 26.7297 61.264 26.0859C60.3124 25.4018 58.885 25.0598 56.9818 25.0598H49.2167V50.0483Z" fill="black"/>
<rect y="16.4285" width="38.026" height="42.2511" fill="#276902"/>
<path d="M38.026 58.6796V16.4285H19.1604C15.3873 16.4285 12.1447 17.0522 9.4328 18.2996C6.68157 19.547 4.55919 21.3578 3.06566 23.7319C1.57213 26.0657 0.82537 28.8422 0.82537 32.0614C0.82537 35.2403 1.57213 37.9966 3.06566 40.3305C4.55919 42.6241 6.68157 44.3947 9.4328 45.6421C12.1447 46.8493 15.3873 47.4528 19.1604 47.4528H31.5409L26.3529 42.4431V58.6796H38.026ZM12.4985 58.6796L22.7566 43.2881H10.3171L0 58.6796H12.4985ZM26.3529 43.7106L31.5409 38.218H19.8678C17.431 38.218 15.6231 37.6747 14.444 36.5883C13.2256 35.5018 12.6164 33.9928 12.6164 32.0614C12.6164 30.0897 13.2256 28.5606 14.444 27.4741C15.6231 26.3877 17.431 25.8444 19.8678 25.8444H31.5409L26.3529 20.3518V43.7106Z" fill="white"/>
<path d="M197.028 59L201.508 49.2H202.53L207.01 59H205.918L201.802 49.802H202.222L198.106 59H197.028ZM198.792 56.382L199.1 55.542H204.798L205.106 56.382H198.792ZM206.951 59V49.2H207.987V58.104H213.475V59H206.951ZM217.622 59.084C216.875 59.084 216.185 58.9627 215.55 58.72C214.925 58.468 214.379 58.118 213.912 57.67C213.455 57.222 213.095 56.6947 212.834 56.088C212.582 55.4813 212.456 54.8187 212.456 54.1C212.456 53.3813 212.582 52.7187 212.834 52.112C213.095 51.5053 213.459 50.978 213.926 50.53C214.393 50.082 214.939 49.7367 215.564 49.494C216.199 49.242 216.889 49.116 217.636 49.116C218.383 49.116 219.064 49.2327 219.68 49.466C220.305 49.6993 220.837 50.054 221.276 50.53L220.632 51.188C220.221 50.7773 219.769 50.4833 219.274 50.306C218.779 50.1287 218.247 50.04 217.678 50.04C217.071 50.04 216.511 50.1427 215.998 50.348C215.494 50.544 215.051 50.8287 214.668 51.202C214.295 51.566 214.001 51.9953 213.786 52.49C213.581 52.9753 213.478 53.512 213.478 54.1C213.478 54.6787 213.581 55.2153 213.786 55.71C214.001 56.2047 214.295 56.6387 214.668 57.012C215.051 57.376 215.494 57.6607 215.998 57.866C216.511 58.062 217.067 58.16 217.664 58.16C218.224 58.16 218.751 58.076 219.246 57.908C219.75 57.74 220.212 57.4553 220.632 57.054L221.22 57.838C220.753 58.2487 220.207 58.5613 219.582 58.776C218.957 58.9813 218.303 59.084 217.622 59.084ZM220.226 57.712V54.1H221.22V57.838L220.226 57.712ZM223.396 53.582H228.576V54.464H223.396V53.582ZM223.508 58.104H229.402V59H222.472V49.2H229.192V50.096H223.508V58.104ZM230.157 59V49.2H233.825C234.656 49.2 235.37 49.3353 235.967 49.606C236.565 49.8673 237.022 50.25 237.339 50.754C237.666 51.2487 237.829 51.8507 237.829 52.56C237.829 53.2507 237.666 53.848 237.339 54.352C237.022 54.8467 236.565 55.2293 235.967 55.5C235.37 55.7613 234.656 55.892 233.825 55.892H230.731L231.193 55.416V59H230.157ZM236.849 59L234.329 55.444H235.449L237.983 59H236.849ZM231.193 55.5L230.731 55.01H233.797C234.777 55.01 235.519 54.7953 236.023 54.366C236.537 53.9367 236.793 53.3347 236.793 52.56C236.793 51.776 236.537 51.1693 236.023 50.74C235.519 50.3107 234.777 50.096 233.797 50.096H230.731L231.193 49.606V55.5ZM238.594 59V49.2H239.63V59H238.594ZM239.571 59L244.051 49.2H245.073L249.553 59H248.461L244.345 49.802H244.765L240.649 59H239.571ZM241.335 56.382L241.643 55.542H247.341L247.649 56.382H241.335Z" fill="black"/>
<path d="M99.0553 58.84C95.6953 58.84 92.5953 58.3 89.7553 57.22C86.9153 56.14 84.4353 54.62 82.3153 52.66C80.2353 50.66 78.6153 48.34 77.4553 45.7C76.2953 43.06 75.7153 40.16 75.7153 37C75.7153 33.84 76.2953 30.94 77.4553 28.3C78.6153 25.66 80.2353 23.36 82.3153 21.4C84.4353 19.4 86.9153 17.86 89.7553 16.78C92.5953 15.7 95.6953 15.16 99.0553 15.16C102.455 15.16 105.555 15.7 108.355 16.78C111.195 17.86 113.655 19.4 115.735 21.4C117.815 23.36 119.435 25.66 120.595 28.3C121.795 30.94 122.395 33.84 122.395 37C122.395 40.16 121.795 43.08 120.595 45.76C119.435 48.4 117.815 50.7 115.735 52.66C113.655 54.62 111.195 56.14 108.355 57.22C105.555 58.3 102.455 58.84 99.0553 58.84ZM99.0553 49C100.655 49 102.135 48.72 103.495 48.16C104.895 47.6 106.095 46.8 107.095 45.76C108.135 44.68 108.935 43.4 109.495 41.92C110.095 40.44 110.395 38.8 110.395 37C110.395 35.16 110.095 33.52 109.495 32.08C108.935 30.6 108.135 29.34 107.095 28.3C106.095 27.22 104.895 26.4 103.495 25.84C102.135 25.28 100.655 25 99.0553 25C97.4553 25 95.9553 25.28 94.5553 25.84C93.1953 26.4 91.9953 27.22 90.9553 28.3C89.9553 29.34 89.1553 30.6 88.5553 32.08C87.9953 33.52 87.7153 35.16 87.7153 37C87.7153 38.8 87.9953 40.44 88.5553 41.92C89.1553 43.4 89.9553 44.68 90.9553 45.76C91.9953 46.8 93.1953 47.6 94.5553 48.16C95.9553 48.72 97.4553 49 99.0553 49ZM138.577 58.84C135.137 58.84 131.817 58.42 128.617 57.58C125.457 56.7 122.877 55.58 120.877 54.22L124.777 45.46C126.657 46.66 128.817 47.66 131.257 48.46C133.737 49.22 136.197 49.6 138.637 49.6C140.277 49.6 141.597 49.46 142.597 49.18C143.597 48.86 144.317 48.46 144.757 47.98C145.237 47.46 145.477 46.86 145.477 46.18C145.477 45.22 145.037 44.46 144.157 43.9C143.277 43.34 142.137 42.88 140.737 42.52C139.337 42.16 137.777 41.8 136.057 41.44C134.377 41.08 132.677 40.62 130.957 40.06C129.277 39.5 127.737 38.78 126.337 37.9C124.937 36.98 123.797 35.8 122.917 34.36C122.037 32.88 121.597 31.02 121.597 28.78C121.597 26.26 122.277 23.98 123.637 21.94C125.037 19.9 127.117 18.26 129.877 17.02C132.637 15.78 136.077 15.16 140.197 15.16C142.957 15.16 145.657 15.48 148.297 16.12C150.977 16.72 153.357 17.62 155.437 18.82L151.777 27.64C149.777 26.56 147.797 25.76 145.837 25.24C143.877 24.68 141.977 24.4 140.137 24.4C138.497 24.4 137.177 24.58 136.177 24.94C135.177 25.26 134.457 25.7 134.017 26.26C133.577 26.82 133.357 27.46 133.357 28.18C133.357 29.1 133.777 29.84 134.617 30.4C135.497 30.92 136.637 31.36 138.037 31.72C139.477 32.04 141.037 32.38 142.717 32.74C144.437 33.1 146.137 33.56 147.817 34.12C149.537 34.64 151.097 35.36 152.497 36.28C153.897 37.16 155.017 38.34 155.857 39.82C156.737 41.26 157.177 43.08 157.177 45.28C157.177 47.72 156.477 49.98 155.077 52.06C153.717 54.1 151.657 55.74 148.897 56.98C146.177 58.22 142.737 58.84 138.577 58.84ZM172.625 58.84C169.185 58.84 165.865 58.42 162.665 57.58C159.505 56.7 156.925 55.58 154.925 54.22L158.825 45.46C160.705 46.66 162.865 47.66 165.305 48.46C167.785 49.22 170.245 49.6 172.685 49.6C174.325 49.6 175.645 49.46 176.645 49.18C177.645 48.86 178.365 48.46 178.805 47.98C179.285 47.46 179.525 46.86 179.525 46.18C179.525 45.22 179.085 44.46 178.205 43.9C177.325 43.34 176.185 42.88 174.785 42.52C173.385 42.16 171.825 41.8 170.105 41.44C168.425 41.08 166.725 40.62 165.005 40.06C163.325 39.5 161.785 38.78 160.385 37.9C158.985 36.98 157.845 35.8 156.965 34.36C156.085 32.88 155.645 31.02 155.645 28.78C155.645 26.26 156.325 23.98 157.685 21.94C159.085 19.9 161.165 18.26 163.925 17.02C166.685 15.78 170.125 15.16 174.245 15.16C177.005 15.16 179.705 15.48 182.345 16.12C185.025 16.72 187.405 17.62 189.485 18.82L185.825 27.64C183.825 26.56 181.845 25.76 179.885 25.24C177.925 24.68 176.025 24.4 174.185 24.4C172.545 24.4 171.225 24.58 170.225 24.94C169.225 25.26 168.505 25.7 168.065 26.26C167.625 26.82 167.405 27.46 167.405 28.18C167.405 29.1 167.825 29.84 168.665 30.4C169.545 30.92 170.685 31.36 172.085 31.72C173.525 32.04 175.085 32.38 176.765 32.74C178.485 33.1 180.185 33.56 181.865 34.12C183.585 34.64 185.145 35.36 186.545 36.28C187.945 37.16 189.065 38.34 189.905 39.82C190.785 41.26 191.225 43.08 191.225 45.28C191.225 47.72 190.525 49.98 189.125 52.06C187.765 54.1 185.705 55.74 182.945 56.98C180.225 58.22 176.785 58.84 172.625 58.84Z" fill="black"/>
</svg>
