<svg width="323" height="61" viewBox="0 0 323 61" fill="none" xmlns="http://www.w3.org/2000/svg">
<path d="M38.026 58.6796V16.4285H58.4664C63.7192 16.4285 67.6398 17.4546 70.2282 19.5068C72.8165 21.5187 74.1107 24.1745 74.1107 27.4741C74.1107 29.647 73.5588 31.5584 72.4549 33.2082C71.3891 34.8178 69.8666 36.1054 67.8872 37.0711C65.946 37.9966 63.6241 38.4594 60.9215 38.4594L62.0634 35.5622C64.8802 35.5622 67.3353 36.0249 69.4288 36.9504C71.5224 37.8357 73.1401 39.1435 74.282 40.8737C75.462 42.5638 76.052 44.6361 76.052 47.0907C76.052 50.7524 74.6436 53.6094 71.8269 55.6616C69.0482 57.6736 64.9753 58.6796 59.6083 58.6796H38.026ZM49.2168 50.0483H58.6948C60.636 50.0483 62.1015 49.7062 63.0912 49.0222C64.1189 48.2979 64.6328 47.2114 64.6328 45.7628C64.6328 44.3142 64.1189 43.2479 63.0912 42.5638C62.1015 41.8395 60.636 41.4773 58.6948 41.4773H48.4175V33.2082H56.9819C58.8851 33.2082 60.3125 32.8662 61.2641 32.1821C62.2157 31.498 62.6915 30.4719 62.6915 29.1038C62.6915 27.7357 62.2157 26.7297 61.2641 26.0859C60.3125 25.4018 58.8851 25.0598 56.9819 25.0598H49.2168V50.0483Z" fill="black"/>
<rect y="16.4285" width="38.026" height="42.2511" fill="#272727"/>
<path d="M38.026 58.6796V16.4285H19.1604C15.3873 16.4285 12.1447 17.0522 9.4328 18.2996C6.68157 19.547 4.55919 21.3578 3.06566 23.7319C1.57213 26.0657 0.82537 28.8422 0.82537 32.0614C0.82537 35.2403 1.57213 37.9966 3.06566 40.3305C4.55919 42.6241 6.68157 44.3947 9.4328 45.6421C12.1447 46.8493 15.3873 47.4528 19.1604 47.4528H31.5409L26.3529 42.4431V58.6796H38.026ZM12.4985 58.6796L22.7566 43.2881H10.3171L0 58.6796H12.4985ZM26.3529 43.7106L31.5409 38.218H19.8678C17.431 38.218 15.6231 37.6747 14.444 36.5883C13.2256 35.5018 12.6164 33.9928 12.6164 32.0614C12.6164 30.0897 13.2256 28.5606 14.444 27.4741C15.6231 26.3877 17.431 25.8444 19.8678 25.8444H31.5409L26.3529 20.3518V43.7106Z" fill="white"/>
<path d="M202.894 59.084C202.147 59.084 201.457 58.9627 200.822 58.72C200.197 58.468 199.651 58.118 199.184 57.67C198.727 57.222 198.367 56.6947 198.106 56.088C197.854 55.4813 197.728 54.8187 197.728 54.1C197.728 53.3813 197.854 52.7187 198.106 52.112C198.367 51.5053 198.731 50.978 199.198 50.53C199.665 50.082 200.211 49.7367 200.836 49.494C201.471 49.242 202.161 49.116 202.908 49.116C203.655 49.116 204.336 49.2327 204.952 49.466C205.577 49.6993 206.109 50.054 206.548 50.53L205.904 51.188C205.493 50.7773 205.041 50.4833 204.546 50.306C204.051 50.1287 203.519 50.04 202.95 50.04C202.343 50.04 201.783 50.1427 201.27 50.348C200.766 50.544 200.323 50.8287 199.94 51.202C199.567 51.566 199.273 51.9953 199.058 52.49C198.853 52.9753 198.75 53.512 198.75 54.1C198.75 54.6787 198.853 55.2153 199.058 55.71C199.273 56.2047 199.567 56.6387 199.94 57.012C200.323 57.376 200.766 57.6607 201.27 57.866C201.783 58.062 202.339 58.16 202.936 58.16C203.496 58.16 204.023 58.076 204.518 57.908C205.022 57.74 205.484 57.4553 205.904 57.054L206.492 57.838C206.025 58.2487 205.479 58.5613 204.854 58.776C204.229 58.9813 203.575 59.084 202.894 59.084ZM205.498 57.712V54.1H206.492V57.838L205.498 57.712ZM207.744 59V49.2H211.412C212.243 49.2 212.957 49.3353 213.554 49.606C214.151 49.8673 214.609 50.25 214.926 50.754C215.253 51.2487 215.416 51.8507 215.416 52.56C215.416 53.2507 215.253 53.848 214.926 54.352C214.609 54.8467 214.151 55.2293 213.554 55.5C212.957 55.7613 212.243 55.892 211.412 55.892H208.318L208.78 55.416V59H207.744ZM214.436 59L211.916 55.444H213.036L215.57 59H214.436ZM208.78 55.5L208.318 55.01H211.384C212.364 55.01 213.106 54.7953 213.61 54.366C214.123 53.9367 214.38 53.3347 214.38 52.56C214.38 51.776 214.123 51.1693 213.61 50.74C213.106 50.3107 212.364 50.096 211.384 50.096H208.318L208.78 49.606V55.5ZM220.465 59.084C219.728 59.084 219.042 58.9627 218.407 58.72C217.782 58.468 217.236 58.118 216.769 57.67C216.312 57.2127 215.953 56.6853 215.691 56.088C215.439 55.4813 215.313 54.8187 215.313 54.1C215.313 53.3813 215.439 52.7233 215.691 52.126C215.953 51.5193 216.312 50.992 216.769 50.544C217.236 50.0867 217.782 49.7367 218.407 49.494C219.033 49.242 219.719 49.116 220.465 49.116C221.203 49.116 221.884 49.242 222.509 49.494C223.135 49.7367 223.676 50.082 224.133 50.53C224.6 50.978 224.959 51.5053 225.211 52.112C225.473 52.7187 225.603 53.3813 225.603 54.1C225.603 54.8187 225.473 55.4813 225.211 56.088C224.959 56.6947 224.6 57.222 224.133 57.67C223.676 58.118 223.135 58.468 222.509 58.72C221.884 58.9627 221.203 59.084 220.465 59.084ZM220.465 58.16C221.053 58.16 221.595 58.062 222.089 57.866C222.593 57.6607 223.027 57.376 223.391 57.012C223.765 56.6387 224.054 56.2093 224.259 55.724C224.465 55.2293 224.567 54.688 224.567 54.1C224.567 53.512 224.465 52.9753 224.259 52.49C224.054 51.9953 223.765 51.566 223.391 51.202C223.027 50.8287 222.593 50.544 222.089 50.348C221.595 50.1427 221.053 50.04 220.465 50.04C219.877 50.04 219.331 50.1427 218.827 50.348C218.323 50.544 217.885 50.8287 217.511 51.202C217.147 51.566 216.858 51.9953 216.643 52.49C216.438 52.9753 216.335 53.512 216.335 54.1C216.335 54.6787 216.438 55.2153 216.643 55.71C216.858 56.2047 217.147 56.6387 217.511 57.012C217.885 57.376 218.323 57.6607 218.827 57.866C219.331 58.062 219.877 58.16 220.465 58.16ZM230.193 59.084C228.943 59.084 227.958 58.7247 227.239 58.006C226.521 57.2873 226.161 56.2233 226.161 54.814V49.2H227.197V54.772C227.197 55.9293 227.459 56.7833 227.981 57.334C228.504 57.8847 229.241 58.16 230.193 58.16C231.155 58.16 231.897 57.8847 232.419 57.334C232.942 56.7833 233.203 55.9293 233.203 54.772V49.2H234.211V54.814C234.211 56.2233 233.852 57.2873 233.133 58.006C232.424 58.7247 231.444 59.084 230.193 59.084ZM235.653 59V49.2H239.321C240.152 49.2 240.866 49.3353 241.463 49.606C242.061 49.8673 242.518 50.25 242.835 50.754C243.162 51.2487 243.325 51.8507 243.325 52.56C243.325 53.2507 243.162 53.848 242.835 54.352C242.518 54.8467 242.061 55.2293 241.463 55.5C240.866 55.7707 240.152 55.906 239.321 55.906H236.227L236.689 55.416V59H235.653ZM236.689 55.5L236.227 54.996H239.293C240.273 54.996 241.015 54.786 241.519 54.366C242.033 53.9367 242.289 53.3347 242.289 52.56C242.289 51.776 242.033 51.1693 241.519 50.74C241.015 50.3107 240.273 50.096 239.293 50.096H236.227L236.689 49.606V55.5Z" fill="black"/>
<path d="M99.0553 58.84C95.6953 58.84 92.5953 58.3 89.7553 57.22C86.9153 56.14 84.4353 54.62 82.3153 52.66C80.2353 50.66 78.6153 48.34 77.4553 45.7C76.2953 43.06 75.7153 40.16 75.7153 37C75.7153 33.84 76.2953 30.94 77.4553 28.3C78.6153 25.66 80.2353 23.36 82.3153 21.4C84.4353 19.4 86.9153 17.86 89.7553 16.78C92.5953 15.7 95.6953 15.16 99.0553 15.16C102.455 15.16 105.555 15.7 108.355 16.78C111.195 17.86 113.655 19.4 115.735 21.4C117.815 23.36 119.435 25.66 120.595 28.3C121.795 30.94 122.395 33.84 122.395 37C122.395 40.16 121.795 43.08 120.595 45.76C119.435 48.4 117.815 50.7 115.735 52.66C113.655 54.62 111.195 56.14 108.355 57.22C105.555 58.3 102.455 58.84 99.0553 58.84ZM99.0553 49C100.655 49 102.135 48.72 103.495 48.16C104.895 47.6 106.095 46.8 107.095 45.76C108.135 44.68 108.935 43.4 109.495 41.92C110.095 40.44 110.395 38.8 110.395 37C110.395 35.16 110.095 33.52 109.495 32.08C108.935 30.6 108.135 29.34 107.095 28.3C106.095 27.22 104.895 26.4 103.495 25.84C102.135 25.28 100.655 25 99.0553 25C97.4553 25 95.9553 25.28 94.5553 25.84C93.1953 26.4 91.9953 27.22 90.9553 28.3C89.9553 29.34 89.1553 30.6 88.5553 32.08C87.9953 33.52 87.7153 35.16 87.7153 37C87.7153 38.8 87.9953 40.44 88.5553 41.92C89.1553 43.4 89.9553 44.68 90.9553 45.76C91.9953 46.8 93.1953 47.6 94.5553 48.16C95.9553 48.72 97.4553 49 99.0553 49ZM138.577 58.84C135.137 58.84 131.817 58.42 128.617 57.58C125.457 56.7 122.877 55.58 120.877 54.22L124.777 45.46C126.657 46.66 128.817 47.66 131.257 48.46C133.737 49.22 136.197 49.6 138.637 49.6C140.277 49.6 141.597 49.46 142.597 49.18C143.597 48.86 144.317 48.46 144.757 47.98C145.237 47.46 145.477 46.86 145.477 46.18C145.477 45.22 145.037 44.46 144.157 43.9C143.277 43.34 142.137 42.88 140.737 42.52C139.337 42.16 137.777 41.8 136.057 41.44C134.377 41.08 132.677 40.62 130.957 40.06C129.277 39.5 127.737 38.78 126.337 37.9C124.937 36.98 123.797 35.8 122.917 34.36C122.037 32.88 121.597 31.02 121.597 28.78C121.597 26.26 122.277 23.98 123.637 21.94C125.037 19.9 127.117 18.26 129.877 17.02C132.637 15.78 136.077 15.16 140.197 15.16C142.957 15.16 145.657 15.48 148.297 16.12C150.977 16.72 153.357 17.62 155.437 18.82L151.777 27.64C149.777 26.56 147.797 25.76 145.837 25.24C143.877 24.68 141.977 24.4 140.137 24.4C138.497 24.4 137.177 24.58 136.177 24.94C135.177 25.26 134.457 25.7 134.017 26.26C133.577 26.82 133.357 27.46 133.357 28.18C133.357 29.1 133.777 29.84 134.617 30.4C135.497 30.92 136.637 31.36 138.037 31.72C139.477 32.04 141.037 32.38 142.717 32.74C144.437 33.1 146.137 33.56 147.817 34.12C149.537 34.64 151.097 35.36 152.497 36.28C153.897 37.16 155.017 38.34 155.857 39.82C156.737 41.26 157.177 43.08 157.177 45.28C157.177 47.72 156.477 49.98 155.077 52.06C153.717 54.1 151.657 55.74 148.897 56.98C146.177 58.22 142.737 58.84 138.577 58.84ZM172.625 58.84C169.185 58.84 165.865 58.42 162.665 57.58C159.505 56.7 156.925 55.58 154.925 54.22L158.825 45.46C160.705 46.66 162.865 47.66 165.305 48.46C167.785 49.22 170.245 49.6 172.685 49.6C174.325 49.6 175.645 49.46 176.645 49.18C177.645 48.86 178.365 48.46 178.805 47.98C179.285 47.46 179.525 46.86 179.525 46.18C179.525 45.22 179.085 44.46 178.205 43.9C177.325 43.34 176.185 42.88 174.785 42.52C173.385 42.16 171.825 41.8 170.105 41.44C168.425 41.08 166.725 40.62 165.005 40.06C163.325 39.5 161.785 38.78 160.385 37.9C158.985 36.98 157.845 35.8 156.965 34.36C156.085 32.88 155.645 31.02 155.645 28.78C155.645 26.26 156.325 23.98 157.685 21.94C159.085 19.9 161.165 18.26 163.925 17.02C166.685 15.78 170.125 15.16 174.245 15.16C177.005 15.16 179.705 15.48 182.345 16.12C185.025 16.72 187.405 17.62 189.485 18.82L185.825 27.64C183.825 26.56 181.845 25.76 179.885 25.24C177.925 24.68 176.025 24.4 174.185 24.4C172.545 24.4 171.225 24.58 170.225 24.94C169.225 25.26 168.505 25.7 168.065 26.26C167.625 26.82 167.405 27.46 167.405 28.18C167.405 29.1 167.825 29.84 168.665 30.4C169.545 30.92 170.685 31.36 172.085 31.72C173.525 32.04 175.085 32.38 176.765 32.74C178.485 33.1 180.185 33.56 181.865 34.12C183.585 34.64 185.145 35.36 186.545 36.28C187.945 37.16 189.065 38.34 189.905 39.82C190.785 41.26 191.225 43.08 191.225 45.28C191.225 47.72 190.525 49.98 189.125 52.06C187.765 54.1 185.705 55.74 182.945 56.98C180.225 58.22 176.785 58.84 172.625 58.84Z" fill="black"/>
</svg>
